<svg width="90" height="104" viewBox="0 0 90 104" fill="none" xmlns="http://www.w3.org/2000/svg">
<g clip-path="url(#clip0_264_2380)">
<path d="M26.6666 50.0001H59.9999H26.6666ZM26.6666 63.3335H39.9999H26.6666ZM43.3333 90.0001L29.9999 76.6668H19.9999C18.2318 76.6668 16.5361 75.9644 15.2859 74.7142C14.0356 73.4639 13.3333 71.7683 13.3333 70.0001V43.3335C13.3333 41.5654 14.0356 39.8697 15.2859 38.6194C16.5361 37.3692 18.2318 36.6668 19.9999 36.6668H66.6666C68.4347 36.6668 70.1304 37.3692 71.3806 38.6194C72.6309 39.8697 73.3333 41.5654 73.3333 43.3335V70.0001C73.3333 71.7683 72.6309 73.4639 71.3806 74.7142C70.1304 75.9644 68.4347 76.6668 66.6666 76.6668H56.6666L43.3333 90.0001Z" stroke="black" stroke-width="6.66667" stroke-linecap="round" stroke-linejoin="round"/>
</g>
<defs>
<clipPath id="clip0_264_2380">
<rect width="90" height="103.333" fill="white"/>
</clipPath>
</defs>
</svg>
